PathFileType	4	(X/Y/Z)	SUBJ62_2_walk_RCNL2025.trc
DataRate	CameraRate	NumFrames	NumMarkers	Units	OrigDataRate	OrigDataStartFrame	OrigNumFrames
100	100	11	25	mm	100	1	306
Frame#	Time	R_Shoulder			L_Shoulder			C7			J_Notch			R_Elbow			L_Elbow			R_Wrist			L_Wrist			R_Asis			L_Asis			Sacral			Thoracic			Sternum			R_Thigh_Lateral			R_Knee_Lateral			R_Shank_Lateral			R_Ankle_Lateral			R_Heel			R_Toe			L_Thigh_Lateral			L_Knee_Lateral			L_Shank_Lateral			L_Ankle_Lateral			L_Heel			L_Toe		
		X1	Y1	Z1	X2	Y2	Z2	X3	Y3	Z3	X4	Y4	Z4	X5	Y5	Z5	X6	Y6	Z6	X7	Y7	Z7	X8	Y8	Z8	X9	Y9	Z9	X10	Y10	Z10	X11	Y11	Z11	X12	Y12	Z12	X13	Y13	Z13	X14	Y14	Z14	X15	Y15	Z15	X16	Y16	Z16	X17	Y17	Z17	X18	Y18	Z18	X19	Y19	Z19	X20	Y20	Z20	X21	Y21	Z21	X22	Y22	Z22	X23	Y23	Z23	X24	Y24	Z24	X25	Y25	Z25
1	0.00000000	-1151.614502	1267.557129	-101.811592	-1174.572388	1284.485962	-441.078217	-1227.271240	1341.141968	-267.975922	-1104.728027	1250.463623	-282.739960	-1280.550049	996.938782	-34.238003	-1103.756714	998.574524	-525.144897	-1267.931091	775.520447	-27.382535	-930.662018	868.608002	-514.220871	-1108.019653	863.327209	-141.152756	-1122.026245	859.479126	-400.247864	-1290.419556	860.063782	-259.836243	-1295.777710	1147.542114	-265.265350	-1091.780884	1051.512573	-280.446564	-1042.311890	484.195343	-71.605988	-1013.460083	437.612518	-146.074051	-980.991028	266.989532	-108.406441	-949.073914	75.111015	-181.978577	-993.105347	45.449158	-225.728271	-843.484985	82.573677	-193.240326	-1258.462036	475.352539	-434.079132	-1274.801514	414.081726	-379.123810	-1299.413208	218.624039	-406.598938	-1331.231323	55.352673	-333.988098	-1383.843262	57.215397	-284.211700	-1225.779297	39.455658	-330.836487
2	0.01000000	-1141.173462	1265.593750	-101.117180	-1164.661255	1282.863281	-440.328308	-1217.053833	1339.310669	-267.204987	-1094.551147	1248.728027	-282.192688	-1272.639404	996.126587	-33.891949	-1091.177002	998.035278	-525.055969	-1262.689575	774.508087	-27.075226	-914.968872	872.261566	-512.654007	-1096.635254	861.404602	-141.185516	-1112.542725	857.879761	-400.513184	-1279.581177	858.160278	-258.544617	-1285.349731	1145.614990	-264.360901	-1081.303833	1049.766357	-280.290527	-1034.782715	480.121613	-71.571976	-1004.207764	435.191406	-145.980850	-964.022400	266.425476	-108.139221	-923.994629	75.278954	-181.565704	-967.286316	43.992622	-225.031204	-818.703735	86.568016	-193.543671	-1252.031860	474.836609	-433.536316	-1269.068481	413.829437	-378.450592	-1296.442871	218.916595	-406.169586	-1330.759644	56.072018	-333.707397	-1383.543823	58.837696	-284.219421	-1225.647461	39.425770	-330.762085
3	0.02000000	-1130.659546	1263.677734	-100.315567	-1154.734863	1281.257446	-439.488708	-1206.796143	1337.516479	-266.314636	-1084.045776	1247.014771	-281.549683	-1264.335571	995.208374	-33.501976	-1078.836182	997.515137	-524.885803	-1256.749573	773.448914	-26.707342	-899.842773	875.580750	-510.999283	-1085.157104	859.480042	-141.108353	-1102.989624	856.377502	-400.756195	-1268.671509	856.282288	-257.177643	-1274.858032	1143.710938	-263.339905	-1070.749756	1048.070801	-280.045654	-1027.386597	476.173828	-71.578400	-994.885742	432.895477	-145.803299	-947.855530	266.048431	-107.670410	-900.813171	75.656395	-180.847977	-943.444458	43.013378	-224.074448	-795.857483	90.193176	-193.524658	-1245.433594	474.419769	-432.941956	-1263.059570	413.631714	-377.754395	-1293.282471	219.326538	-405.751373	-1330.267578	56.976315	-333.454407	-1383.317505	60.796684	-284.420013	-1225.517212	39.416538	-330.685791
4	0.03000000	-1120.065063	1261.837280	-99.391823	-1144.782227	1279.706177	-438.544861	-1196.482666	1335.792358	-265.288452	-1073.382568	1245.382812	-280.804016	-1255.619141	994.195435	-33.056961	-1066.775757	997.044189	-524.647156	-1250.082581	772.344421	-26.272947	-885.299194	878.530212	-509.280670	-1073.591797	857.593384	-140.929047	-1093.335327	854.991760	-400.960144	-1257.671021	854.474426	-255.757507	-1264.292969	1141.866455	-262.202606	-1060.104492	1046.462036	-279.709412	-1019.824097	472.637909	-71.578987	-985.380676	430.792969	-145.517334	-932.611206	265.710388	-107.032471	-879.756104	76.047028	-179.925812	-921.813110	42.338360	-222.977005	-775.103882	93.190979	-193.182236	-1238.667358	474.128052	-432.302368	-1256.768433	413.508698	-377.055725	-1289.950073	219.857147	-405.360321	-1329.737061	58.083523	-333.234009	-1383.166382	63.142159	-284.851196	-1225.379272	39.429764	-330.608124
5	0.04000000	-1109.381714	1260.102173	-98.333031	-1134.788818	1278.247314	-437.485626	-1186.098999	1334.171143	-264.112793	-1062.658569	1243.876709	-279.943390	-1246.471313	993.104858	-32.544418	-1055.036255	996.653198	-524.352173	-1242.679199	771.200958	-25.766215	-871.353729	881.075592	-507.522186	-1061.946045	855.792236	-140.651886	-1083.526978	853.732605	-401.088043	-1246.563110	852.781250	-254.305954	-1253.642944	1140.116821	-260.948334	-1049.357910	1044.975708	-279.270386	-1011.804260	469.743713	-71.516357	-975.616882	428.930817	-145.107132	-918.372742	265.272095	-106.276505	-861.017822	76.280533	-178.893478	-902.588989	41.816742	-221.843750	-756.575378	95.331406	-192.504196	-1231.717651	473.981079	-431.624634	-1250.177490	413.476349	-376.375214	-1286.441772	220.507812	-405.010742	-1329.143066	59.415417	-333.059875	-1383.044678	65.885834	-285.498505	-1225.220825	39.468147	-330.530151
6	0.05000000	-1098.599243	1258.501831	-97.131248	-1124.738770	1276.919312	-436.302338	-1175.634277	1332.684448	-262.778687	-1051.913696	1242.529541	-278.957245	-1236.874390	991.959045	-31.950489	-1043.650391	996.366150	-524.005066	-1234.536804	770.031250	-25.183310	-858.020905	883.183655	-505.745499	-1050.226196	854.130005	-140.275436	-1073.498779	852.602844	-401.090485	-1235.334106	851.244873	-252.841385	-1242.895386	1138.495239	-259.575592	-1038.506958	1043.645630	-278.705963	-1003.139893	467.607178	-71.337418	-965.565430	427.331299	-144.565399	-905.186218	264.628876	-105.460861	-844.735535	76.222618	-177.827347	-885.906250	41.338810	-220.764069	-740.364807	96.433189	-191.475082	-1224.553101	473.990540	-430.915680	-1243.255249	413.545197	-375.731445	-1282.717529	221.284073	-404.719482	-1328.456787	60.996685	-332.952759	-1382.853760	68.995895	-286.282745	-1225.025635	39.534149	-330.453705
7	0.06000000	-1087.705444	1257.065552	-95.785866	-1114.613647	1275.759277	-434.990234	-1165.080811	1331.363159	-261.282623	-1041.145630	1241.365234	-277.844116	-1226.811279	990.783691	-31.261312	-1032.627319	996.186157	-523.584656	-1225.653015	768.853577	-24.519140	-845.313202	884.824707	-503.969543	-1038.438354	852.662231	-139.792786	-1063.190430	851.607178	-400.925323	-1223.973755	849.902771	-251.377930	-1232.040161	1137.033691	-258.085388	-1027.550415	1042.503906	-277.993530	-993.803162	466.206787	-71.004059	-955.237244	425.991913	-143.891434	-893.077454	263.724213	-104.636574	-830.963989	75.783844	-176.783707	-871.811829	40.843494	-219.815033	-726.508911	96.381630	-190.086395	-1217.124634	474.159241	-430.180908	-1235.956055	413.721466	-375.141998	-1278.695190	222.200729	-404.503510	-1327.646484	62.852356	-332.933472	-1382.476440	72.433968	-287.106354	-1224.772827	39.628994	-330.382172
8	0.07000000	-1076.686279	1255.821289	-94.303719	-1104.395508	1274.801514	-433.547363	-1154.433105	1330.238770	-259.626556	-1030.326782	1240.402100	-276.611176	-1216.263428	989.605225	-30.465393	-1021.937927	996.086304	-523.028564	-1216.020691	767.689667	-23.763576	-833.240417	885.976532	-502.212463	-1026.589355	851.442810	-139.193222	-1052.560669	850.758423	-400.566284	-1212.476074	848.788025	-249.926392	-1221.072388	1135.767456	-256.483429	-1016.478699	1041.581909	-277.125214	-983.896301	465.411835	-70.492783	-944.673340	424.893494	-143.086700	-882.071533	262.552460	-103.834961	-819.656006	74.931931	-175.804413	-860.248840	40.321274	-219.061234	-714.971375	95.141716	-188.347427	-1209.362549	474.481293	-429.423615	-1228.218628	414.006958	-374.624359	-1274.263062	223.272430	-404.368744	-1326.673584	65.007294	-333.014771	-1381.815674	76.197960	-287.912445	-1224.436157	39.752548	-330.321655
9	0.08000000	-1065.528442	1254.795532	-92.697540	-1094.066895	1274.078979	-431.975037	-1143.685181	1329.344727	-257.817444	-1019.427795	1239.664795	-275.262268	-1205.211792	988.449890	-29.554792	-1011.528687	996.021729	-522.250854	-1205.626221	766.562408	-22.904445	-821.809570	886.627625	-500.493103	-1014.690063	850.520508	-138.464401	-1041.584717	850.075623	-399.998138	-1200.844604	847.931458	-248.496475	-1209.993042	1134.736084	-254.780563	-1005.277710	1040.909546	-276.107635	-973.556885	465.056488	-69.785278	-933.939758	424.013611	-142.149597	-872.197571	261.151276	-103.067001	-810.656372	73.702797	-174.925293	-851.053040	39.816563	-218.553101	-705.630859	92.766190	-186.294678	-1201.172729	474.941589	-428.646271	-1219.962646	414.395630	-374.193634	-1269.307617	224.506897	-404.308472	-1325.490845	67.488121	-333.195618	-1380.799683	80.329842	-288.691467	-1223.987427	39.902466	-330.280670
10	0.09000000	-1054.222168	1254.012939	-90.984673	-1083.606934	1273.627808	-430.279480	-1132.828979	1328.718262	-255.867233	-1008.434692	1239.190308	-273.790375	-1193.638306	987.343994	-28.524817	-1001.356445	995.960754	-521.188416	-1194.452820	765.495087	-21.934529	-811.025299	886.776855	-498.829941	-1002.759399	849.939453	-137.593719	-1030.252075	849.580811	-399.210846	-1189.094482	847.363892	-247.098114	-1198.809326	1133.982666	-252.992813	-993.943481	1040.515015	-274.950867	-962.872803	465.020050	-68.860191	-923.124023	423.339966	-141.072968	-863.476624	259.591400	-102.331924	-803.712769	72.203194	-174.179794	-843.963867	39.418457	-218.323105	-698.280212	89.396820	-183.996567	-1192.434082	475.515106	-427.852661	-1211.084473	414.870117	-373.860229	-1263.732788	225.906723	-404.312500	-1324.040405	70.327065	-333.460419	-1379.363281	84.899696	-289.450287	-1223.401489	40.070080	-330.265961
11	0.10000000	-1042.764648	1253.497192	-89.186279	-1072.999023	1273.484009	-428.470764	-1121.856445	1328.400879	-253.793564	-997.346863	1239.020386	-272.187531	-1181.526001	986.314880	-27.373850	-991.408875	995.904297	-519.829163	-1182.484924	764.512451	-20.854963	-800.890961	886.432800	-497.236740	-990.825439	849.742371	-136.569305	-1018.565857	849.298767	-398.197113	-1177.252075	847.116211	-245.742462	-1187.533936	1133.551392	-251.142639	-982.489685	1040.426392	-273.663147	-951.870300	465.270569	-67.692787	-912.330383	422.881714	-139.844635	-855.903137	257.971527	-101.621216	-798.499756	70.594421	-173.590500	-838.649231	39.230450	-218.374619	-692.640625	85.260704	-181.554642	-1183.000732	476.167450	-427.050812	-1201.456543	415.400330	-373.628876	-1257.464844	227.473358	-404.368744	-1322.253418	73.565689	-333.782013	-1377.428467	89.989372	-290.184540	-1222.663086	40.236500	-330.272949
